<svg transform="scale(1)" version="1.1" id="Layer_1" xmlns="http://www.w3.org/2000/svg" xmlns:xlink="http://www.w3.org/1999/xlink" x="0px" y="0px" viewBox="0 0 500 500" xml:space="preserve" class="show_show__wrapper__graphic__5Waiy "><title>React</title><style type="text/css">
	.st0{fill:#0cbd7b;}
	.st1{fill:#045733;}
	.st2{fill:#FFFFFF;}
</style><g id="step"><rect class="st0" x="105.1" y="441.8" width="66.2" height="26"></rect><path class="st0" d="M170.7,440.6h-66.2c-0.5,0-1.9,0.3-1.9,1v26c0,1.3,2.2,1.4,3.1,1.4h66.2c0.5,0,1.9-0.3,1.9-1v-26
		c0-1.8-5-2-5-0.4v26l1.9-1h-66.2l3.1,1.4v-26l-1.9,1h66.2c0.7,0,2.2-0.4,1.9-1.4S171.5,440.6,170.7,440.6z"></path><rect class="st0" x="215.2" y="401.3" width="66.2" height="65.5"></rect><path class="st0" d="M282.1,399.1h-66.2c-1.5-0.1-2.9,1.1-3,2.6v65.5c0,1,0.8,1.8,1.8,1.8h66.2c1.5,0.1,2.9-1.1,3-2.6v-65.5
		c0-3-4.7-1.8-4.7,0.8v65.5l3-2.6h-66.3l1.8,1.8v-65.5l-3,2.6h66.2c1.3,0.1,2.5-0.8,2.9-2c0.3-1-0.2-2-1.2-2.3
		C282.4,399.1,282.2,399.1,282.1,399.1z"></path><rect class="st0" x="325.5" y="358.7" width="66.2" height="108.5"></rect><path class="st0" d="M392.4,356.5h-66.2c-1.5-0.1-2.9,1.1-3,2.6v95.2c0,4.4-0.2,8.8,0,13.2v0.2c0,1,0.8,1.8,1.8,1.8h66.2
		c1.5,0.1,2.9-1.1,3-2.6v-95.1c0-4.4,0.2-8.8,0-13.2v-0.2c0-3-4.7-1.8-4.7,0.8v104.1c0,1.4-0.1,2.9,0,4.3c0,0.1,0,0.1,0,0.2l3-2.6
		h-66.3l1.8,1.8V362.7c0-1.4,0.1-2.9,0-4.3c0-0.1,0-0.1,0-0.2l-3,2.6h66.2c1.3,0.1,2.5-0.8,2.9-2c0.3-1-0.2-2-1.2-2.3
		C392.7,356.5,392.6,356.5,392.4,356.5z"></path></g><g id="character"><path class="st1" d="M182.8,341.5c0,0-9.1,20.9-39.4,44.4c-0.6,0.5-1.6,11.5-1.6,11.5l14.2,1.3l-15.2,6.8l12.5,31.6
		c1.9,4.7,14.5,5.6,15.8,4c2-2.5-3.7-10.5-4.7-14c-2.9-10.3,8.2-22.1,8.2-22.1l26-27.5L182.8,341.5z"></path><path class="st1" d="M182.3,341.2c-2.1,4.9-5.4,9.4-8.5,13.6c-3.8,5.1-8,9.9-12.4,14.4c-2.9,2.9-5.9,5.8-9,8.5
		c-1.7,1.5-3.4,2.9-5.1,4.3c-0.9,0.7-1.8,1.4-2.6,2.1c-0.7,0.4-1.3,0.9-1.9,1.5c-0.3,0.7-0.5,1.4-0.5,2.2c-0.2,1.3-0.4,2.6-0.5,3.9
		c-0.2,1.8-0.4,3.6-0.5,5.5c0,0.4,0.5,0.6,0.8,0.7l14.2,1.3l-0.7-0.8l-15.2,6.8c-0.1,0.1-0.1,0.2-0.1,0.2l9,22.8
		c1.2,2.9,2.2,5.9,3.5,8.8c1.8,4.3,8.4,5.3,12.5,5.4c1.4,0,4.1,0.2,4.7-1.4c0.2-1,0.1-2.1-0.3-3.1c-0.5-1.5-1.2-3-1.9-4.5
		c-1.5-3-3.2-5.8-3.3-9.2c0-3.6,1-7.2,2.8-10.3c3.2-6.3,8.3-11.1,13.1-16.1l18.4-19.5l0.4-0.4c0-0.1,0-0.1,0-0.2l-13.8-31.4l-2-4.5
		c-0.2-0.4-1.3-0.8-1.1-0.3l14.5,32.9l1.1,2.5c0.1,0.2,0.1,0.3,0.2,0.5c0,0.2,0.1-0.2,0,0c-1.2,1.4-2.5,2.8-3.8,4.1l-15.4,16.4
		c-2.7,2.8-5.5,5.6-8,8.6c-2.9,3.4-5.1,7.4-6.5,11.6c-0.8,2.4-1,4.9-0.7,7.4c0.4,2.1,1.2,4.1,2.3,5.9c1.3,2.2,2.3,4.5,3,6.9
		c0.4,1.5,0.2,2.8-1.4,3.1c-1.8,0.3-3.7,0.3-5.5-0.1c-2.2-0.2-4.2-0.9-6.1-2c-1.8-1.1-2.2-2.9-2.9-4.7l-3.6-9.1l-7.4-18.7
		c-0.1-0.3-0.2-0.5-0.3-0.8c-0.2-0.3,0-0.1-0.1,0c0.9-0.5,1.9-0.9,2.8-1.3l10.1-4.5l2.2-1c0.5-0.2-0.5-0.8-0.7-0.8l-14.2-1.3
		l0.8,0.7c0.3-3.6,0.4-7.4,1.3-10.8c0-0.2,0.1-0.4,0.2-0.6c0.4-0.4,0.8-0.7,1.3-1l1.5-1.2c1.8-1.4,3.5-2.9,5.2-4.4
		c3-2.6,6-5.3,8.8-8.1c7.7-7.5,14.5-15.9,20.1-25.1c0.9-1.5,1.7-3,2.5-4.6C183.6,341.5,182.5,340.8,182.3,341.2z"></path><path class="st1" d="M289.2,318.2c0,0-11.3,41-10.4,41s20.8,0.7,20.8,0.7l2.2-14.1l6.4,15.5l43.8-2.7c0,0,1.4-5.1-8.4-10.8
		s-27.2-9.7-27.2-9.7l10.3-24L289.2,318.2z"></path><path class="st1" d="M288.6,318.4c-2.3,8.5-4.6,17-6.9,25.5c-1.2,4.5-2.4,9.1-3.3,13.6c-0.1,0.5-0.6,1.9,0,2.2
		c0.6,0.1,1.1,0.1,1.7,0l3.3,0.1c5.3,0.2,10.6,0.4,15.9,0.5c0.4,0,0.7-0.3,0.8-0.6l2.2-14.1l-1.1,0.5l6.4,15.5
		c0,0.1,0.2,0.1,0.3,0.1l14.8-0.9l23.6-1.5l5.4-0.3c0.4,0,0.7-0.3,0.8-0.6c0.2-1.2,0-2.3-0.5-3.4c-1.5-3.4-4.8-5.8-7.8-7.6
		c-6.7-3.9-14.3-6.3-21.7-8.4c-1.9-0.5-3.9-1.1-5.8-1.5l0.2,0.4l9-20.9l1.3-3c0.1-0.2,0-0.5-0.3-0.5l-32.8,3.5l-4.7,0.5
		c-0.5,0-1.2,1-0.5,0.9l32.8-3.5l4.7-0.5l-0.3-0.5l-9,20.9l-1.3,3c-0.1,0.2,0,0.4,0.2,0.4c4.7,1.1,9.4,2.5,14,4.1
		c3.8,1.2,7.5,2.8,11.1,4.5c3.5,1.8,7.1,4,9.2,7.4c0.7,1.1,1.4,2.8,1.1,4.1l0.8-0.6l-24.4,1.5l-15.1,1c-1.3,0.1-2.6,0.1-3.8,0.2
		c-0.1,0-0.2,0-0.4,0s0.2,0.1,0.2,0.1c-0.2-0.6-0.4-1.2-0.7-1.7l-5.7-13.8c-0.2-0.5-1,0.2-1.1,0.5l-2.2,14.1l0.8-0.6l-13.2-0.5
		c-2.3-0.1-4.6-0.2-6.9-0.2c-0.2,0-0.4,0-0.6,0c0.1,0,0.1,0.2,0.2,0.1c0.1-0.4,0.2-0.9,0.2-1.3c0.8-4.3,2-8.6,3.1-12.8
		c1.4-5.6,2.9-11.2,4.5-16.9c0.9-3.3,1.8-6.6,2.7-9.8C289.9,317.5,288.8,317.9,288.6,318.4z"></path><path class="st2" d="M230.6,235.9c-1.9,6.7-73.4,126.3-71.6,130.1s27.7,40.1,27.7,40.1l103.7-153.8L230.6,235.9z"></path><path class="st1" d="M228.3,236.6c0,0.1-0.1,0.3-0.1,0.4l-0.1,0.3c-0.1,0.3,0.1-0.3,0,0.1c-0.3,0.6-0.5,1.1-0.8,1.7
		c-0.9,1.7-1.8,3.4-2.7,5.1c-3,5.4-6,10.8-9.1,16.1c-4.1,7.1-8.1,14.3-12.2,21.4c-4.6,8-9.1,15.9-13.7,23.9
		c-4.5,7.8-8.9,15.6-13.3,23.4c-3.7,6.6-7.4,13.2-11,19.8c-2.4,4.5-4.8,8.9-6.9,13.5c-0.6,1.2-1.1,2.4-1.5,3.7
		c-0.3,1.1,0.5,2,1.1,2.9c4.2,6.6,8.8,13,13.4,19.5c4.1,5.9,8.3,11.8,12.5,17.7l0.7,1c0.9,1.2,3.9-0.6,4.4-1.5l2.8-4.1l7.6-11.2
		l11.1-16.5l13.6-20.2l14.9-22.1l15.1-22.4l14-20.8l11.8-17.6l8.5-12.7c1.3-2,2.8-3.9,4-6l0.2-0.3c0.3-0.5,0.1-0.7-0.4-0.9
		l-20.1-5.5l-32.2-8.8l-7.4-2c-1-0.3-2.5,0.5-3.3,1.1c-0.5,0.4-1.3,1.3-0.3,1.5l20.2,5.5l32.2,8.8l7.4,2l-0.4-0.9l-2.8,4.1
		l-7.6,11.2l-11.1,16.5l-13.6,20.2l-14.9,22.1l-15.1,22.4l-14,20.8l-11.8,17.6l-8.6,12.7c-1.3,2-2.8,3.9-4,6
		c-0.1,0.1-0.1,0.2-0.2,0.3l4.4-1.5c-3.1-4.4-6.2-8.8-9.3-13.1c-5-7.2-10.1-14.3-15-21.6c-1.3-1.7-2.4-3.5-3.4-5.4
		c-0.1-0.1-0.1,0.3,0-0.1c0-0.2,0.1-0.3,0.1-0.5c0.1-0.5,0.3-1,0.5-1.5c0.1-0.3,0.3-0.6,0.4-1c0-0.1,0.3-0.6,0.1-0.3l0.3-0.6
		c0.4-0.9,0.9-1.8,1.3-2.7c1.1-2.3,2.3-4.6,3.5-6.9c3.4-6.3,6.8-12.6,10.3-18.8c4.3-7.6,8.6-15.2,12.9-22.8c4.6-8,9.1-16,13.7-23.9
		c4.3-7.4,8.5-14.8,12.8-22.3c3.3-5.8,6.6-11.6,9.9-17.5c1.8-3.3,3.7-6.5,5.2-9.9c0.2-0.4,0.4-0.8,0.5-1.2c0.3-0.9-1.8-0.4-2.1-0.4
		C230,235.1,228.6,235.6,228.3,236.6z"></path><path class="st1" d="M147.1,165.9c1.4-2,3-3.9,4.7-5.6c2.9-3,6.3-6.1,10.3-7.3c1-0.3,2-0.4,2.9-0.4c0.3,0,0.6,0.1,0.9,0.1
		c0.2,0,0.4,0.1,0.5,0.1c0.3,0.1,0.5,0.2,0.8,0.3c0.1,0,0.5,0.2,0.3,0.1l0.4,0.2c0.9,0.5,2.3,0.7,2.8-0.4s-0.5-2.5-1.4-3
		c-9.1-5.3-18.4,3.4-23.9,10.1c-0.6,0.8-1.3,1.6-1.8,2.4c-0.6,1-0.3,2.3,0.6,3C144.6,166.1,146.4,166.9,147.1,165.9L147.1,165.9z"></path><path class="st2" d="M174,146c0,0-17.7,15.6-6.6,16.9c0,0-1,8.2,7.2,4.5c0,0,1.9,9.5,7.4,5.3c0,0,3.3,7.4,9.1,3.9
		s2.9-20.6,2.9-20.6S176.2,145.4,174,146z"></path><path class="st1" d="M171.9,144.8c-2.1,1.9-4,3.9-5.9,6c-1.4,1.5-2.6,3.3-3.6,5.1c-0.7,1.3-1.3,2.9-0.8,4.4c1,2.7,4.6,3.6,7.1,3.9
		l-3.6-2.3c-0.3,1.6,0.1,3.3,0.9,4.7c1.2,1.6,2.9,2.6,4.8,2.9c2,0.3,4.1,0,5.9-0.9l-4.4-1.9c0.3,1.9,1.1,3.6,2.2,5.2
		c2.2,2.9,6.5,4.3,9.6,2.1l-4.4-1.9c1.9,4.2,6.9,8.1,11.7,6.6c5.1-1.6,5.5-7.8,5.6-12.3c0-2.3-0.1-4.6-0.4-6.9
		c-0.1-0.7-0.1-1.4-0.3-2.1c-0.1-0.8-0.7-1.5-1.4-1.8c-2.9-1.8-5.8-3.4-8.8-5.1c-2.6-1.4-5.1-2.8-7.8-4c-1.7-0.8-4.2-2.1-6.1-1.7
		c-1.1,0.2-0.2,1.2,0.3,1.5c0.9,0.7,2.1,1.1,3.3,1.1c0.3-0.1-0.9,0-0.1,0c-0.6,0-0.3-0.1,0,0l0.5,0.2c-0.8-0.2,0.6,0.3,0.9,0.4
		c0.4,0.2,0.9,0.4,1.3,0.6l0.4,0.2l0.6,0.3l1.8,0.9c1.1,0.6,2.2,1.2,3.3,1.8c2.9,1.6,5.7,3.2,8.6,4.9l-1.3-1.3
		c0.6,3.4,0.8,6.9,0.7,10.4c0,2.5-0.4,4.9-1.4,7.2c-0.4,0.9-0.9,1.7-1.7,2.3c-0.5,0.4-1.1,0.7-1.7,0.9c-0.3,0.1-0.6,0.1-0.9,0.1
		c-0.2,0-0.4-0.1-0.3,0c0.1,0.1,0.2,0.1,0.4,0.2c-0.1,0-0.3-0.2-0.1,0c-0.2-0.1-0.4-0.3-0.5-0.4c-0.4-0.3-0.7-0.7-1-1.1
		c-0.2-0.3-0.4-0.7-0.6-1.1c-0.1-0.2-0.4-0.8-0.2-0.3c-0.4-0.8-1.1-1.3-1.9-1.6c-0.6-0.3-1.9-0.8-2.5-0.3c-0.5,0.4-1,0.6-1.5,0.8
		c-0.2,0-0.4,0.1-0.6,0.1c0-0.1,0.9,0.3,1.1,0.4c0.4,0.2,0.3,0.3,0,0c-0.1-0.1-0.1-0.2-0.2-0.3c-0.3-0.4-0.5-0.8-0.7-1.2
		c-0.5-1-0.9-2.1-1.1-3.2c-0.3-1.4-3.3-2.4-4.4-1.9c-0.8,0.4-1.6,0.6-2.4,0.8c-0.2,0-0.3,0.1-0.5,0.1c-0.2,0-0.4-0.1-0.1,0
		c0.4,0.1,0.7,0.3,1,0.5c-0.2-0.1-0.2-0.1,0,0c0-0.1,0,0-0.1-0.1c-0.2-0.3-0.3-0.6-0.4-0.9c-0.2-0.6-0.3-1.3-0.3-2
		c0-0.2,0-0.5,0-0.7s0,0.2,0-0.1c0.2-1.4-2.6-2.2-3.6-2.3c0.2,0-0.3-0.1-0.4-0.1c0.4,0.1,0,0-0.1,0c0.1,0.1,0.3,0.1,0.4,0.2
		c0.5,0.2-0.3-0.2,0.1,0.1c0,0,0.2,0.2,0.1,0.1c0.1,0.3-0.1-0.3-0.1-0.2c-0.1-0.3-0.1-0.5-0.1-0.8c0.2-1.4,0.7-2.8,1.5-3.9
		c1.9-2.9,4.1-5.5,6.6-7.8c0.6-0.6,1.2-1.2,1.9-1.8C177.2,146.2,172.9,143.9,171.9,144.8z"></path><path class="st1" d="M186.4,169.1c1.2,1.7,1.8,3.9,1.6,6c-0.2,2.2-0.9,4.4-2.1,6.3c-2.1,3.6-4.8,6.7-8,9.4
		c-0.7,0.6-1.4,1.2-2.1,1.7c-1.6,1.2,0.8,5.5,2.4,4.4c6.4-4.5,13-11.9,13.3-20.1c0-3.7-1.1-7.3-3.3-10.2c-0.5-0.7-1.7-1.5-2.4-0.7
		S185.9,168.4,186.4,169.1L186.4,169.1z"></path><path class="st2" d="M375.8,132.8c0,0-4-7.7-5.5-13.8s-5.9-9.2-7.2-13.8s3.8-5,8.7,1.2s6.2,4.8,7.9,2.9s10.8-27.1,15.4-25.8
		s-3.4,26.8-2.5,25.9s11.9-23.7,15.3-20.6s-7.6,28.3-6.8,27.6s11-15.7,13.4-14s-8.4,29.1-26,39.6l-0.7,9.3c0,0-13-4.1-16.6-8.4
		L375.8,132.8z"></path><path class="st1" d="M377,133.5c-1-2-2-4-2.8-6.1c-0.8-1.8-1.4-3.6-2-5.4c-0.5-2-1.2-3.9-2-5.8c-0.9-1.8-2-3.5-3.1-5.2
		c-0.8-1.1-1.5-2.2-2.1-3.4c-0.4-1-0.9-2.4,0-3.2s2.2-0.4,3.1,0c3.5,1.6,5.2,5.6,8.2,7.8c1.5,1.1,3,1.2,4.3-0.1
		c0.8-0.9,1.4-1.9,1.9-3c0.9-1.9,1.7-3.9,2.6-5.8c2-4.8,4.3-9.4,7-13.7c0.8-1.3,1.9-2.9,3.3-3.6c0.2-0.1,0.4-0.2,0.6-0.2
		c0.1,0,0.2,0,0.3,0s0.1,0.1,0.1,0s-0.9-1.1-0.8-0.9c-0.3-0.3-0.4-0.6-0.6-1c-0.3-0.5,0,0.1-0.1-0.2c0.1,0.4,0.2,0.7,0.2,1.1
		c0.1,2,0,4-0.4,6c-0.4,2.4-0.8,4.9-1.4,7.3c-0.5,2.1-1,4.3-1.5,6.4c-0.3,1.1-0.6,2.1-0.7,3.2c0.1,0.6,0.3,1.2,0.7,1.8
		c0.3,0.6,1.3,2.3,2.1,2.3c0.3,0,0.4-0.3,0.6-0.6c0.8-1.4,1.6-2.8,2.3-4.2c2.2-4.3,4.7-8.4,7.5-12.4c1-1.3,2.1-2.9,3.6-3.6
		c0.2-0.1,0.4-0.1,0.5-0.2c0.1,0,0.3,0.1,0.3,0s0,0.1-0.1-0.1c-0.5-0.6-1.6-1.9-1.6-2.4c0,0.1,0.1,0.3,0.1,0.4c0,0.3,0.1,0.6,0,0.9
		c-0.1,4.4-1.8,9-3.2,13.1c-1.3,3.8-2.8,7.5-4.1,11.2c-0.1,0.3-0.2,0.6-0.2,0.9c0.2,1.1,0.8,2.1,1.6,2.9c0.3,0.3,0.9,1.1,1.4,0.9
		c0.3-0.1,0.7-0.8,0.8-1l1.6-2.2c1.5-2,3.1-4,4.7-6c1.3-1.7,2.8-3.2,4.5-4.4c0.3-0.2,0.5-0.3,0.8-0.4c0.1,0,0.2,0,0.2,0s0.1,0,0.2,0
		s0,0,0,0c-1.1-0.6-1.9-1.6-2.1-2.9c0.1,0,0-0.3,0-0.1s0,0.3,0,0.1c0,0.3,0,0.5,0,0.8c-0.2,1.7-0.7,3.3-1.3,4.9
		c-1.9,5.2-4.4,10.1-7.4,14.7c-3.5,5.6-7.9,10.7-13,14.9c-1.3,1-2.6,2-4,2.9c-0.8,0.5-0.6,0.8-0.7,1.6l-0.5,6.9
		c-0.1,0.3-0.1,0.7-0.1,1c0.1,0.5-0.1-0.1,0.2,0.1c-0.5-0.2-1.1-0.4-1.6-0.6c-2.5-0.9-4.9-1.8-7.3-2.9c-1.3-0.6-2.6-1.3-3.9-2.1
		c-0.5-0.3-1.1-0.6-1.6-1c-0.2-0.2-0.4-0.3-0.6-0.5s-0.4-0.4-0.2-0.1l1.4,2.8l4.6-10.1c0.3-0.7-1-2.3-1.4-2.8
		c-0.2-0.3-1.3-1.7-1.6-1l-4.7,9.9c-0.3,0.7,1.1,2.4,1.4,2.8c2.7,3.2,6.6,5.2,10.4,6.8c2.4,1.1,4.9,2,7.5,2.8c0.2,0,0.2,0,0.3-0.2
		l0.5-6.8l0.1-1.6c0-0.2,0-0.7,0.1-0.9c0.3-0.2,0.7-0.4,1-0.5c0.5-0.3,0.9-0.6,1.3-0.9c0.8-0.6,1.5-1.1,2.3-1.7
		c6-5.1,11-11.2,14.8-18c2.8-4.8,5.6-10.1,6.7-15.6c0.5-2-0.1-4.1-1.4-5.6c-0.6-0.8-1.4-1.7-2.5-1.3c-0.9,0.4-1.7,0.9-2.3,1.6
		c-2.4,2.3-4.5,4.9-6.5,7.5c-0.8,1.1-1.7,2.2-2.5,3.3c-0.3,0.4-0.5,0.7-0.8,1.1c-0.5,0.7-0.3,0.2,0.4,0.8l2.1,3.3
		c0.1,0.4,0,0.2,0.1,0c0.1-0.2,0.1-0.4,0.2-0.6c0.2-0.7,0.5-1.3,0.7-2c0.8-2.1,1.5-4.2,2.3-6.2c1.6-4.6,3.4-9.4,4.1-14.3
		c0.4-1.9,0.1-3.8-0.9-5.5c-0.9-1.4-2.3-3.7-4.2-2.6c-1.5,0.8-2.7,2.5-3.7,3.9c-1.5,2.1-2.9,4.3-4.2,6.5c-1.4,2.3-2.7,4.7-4,7.1
		c-0.4,0.8-0.8,1.5-1.3,2.3c-0.1,0.2-0.3,0.4-0.4,0.7s-0.2,0.1,0,0.2l1.3,1.2l0,0l1.3,2.1c0.1,0.3,0,0.7,0.1,0.4
		c0-0.2,0.1-0.3,0.1-0.5c0.1-0.5,0.2-1,0.4-1.5c0.4-1.6,0.8-3.2,1.1-4.7c1-3.9,1.7-7.9,2.2-11.9c0.4-3.7,0.2-7.1-2.5-9.9
		c-0.8-0.9-1.8-1.4-3-0.8c-1.1,0.7-2,1.7-2.7,2.8c-4.5,6.4-7,14.1-10.5,21.1c-0.9,1.9-2.5,4.1-4.8,2.5c-1.1-0.9-2-1.9-2.8-3.1
		c-1.2-1.5-2.5-2.8-4.1-3.9c-1.3-0.9-4.1-2.5-5.5-0.9s0.1,4.8,1,6.4c1.4,2.6,3.3,4.8,4.7,7.4c1.5,2.8,2,6.1,3.1,9
		c1,2.6,2.1,5.1,3.3,7.6c0.2,0.4,0.4,0.8,0.6,1.2c0.4,0.8,1.2,2.4,2.1,2.7S377.2,134,377,133.5z"></path><path class="st1" d="M235.5,254.7c0,0-60.2-19.8-58-27.4s58-75.5,58-75.5S223,136,217.1,136.5s-20.7,25.6-23.8,26.1
		s-23.8-17.5-23.8-20.7s26.1-40.5,41.3-43.6s139.2,57.1,143.7,56.2s11.8-23.4,11.8-23.4s27,2.7,30.6,14.8s-18,49-31.5,50.8
		s-51.7-16.2-51.7-16.2s23.4,63.8,20.2,70.6S258,267.3,235.5,254.7z"></path><path class="st1" d="M236.8,252.6c-8.9-2.9-17.7-6.1-26.5-9.5c-6.6-2.6-13.1-5.2-19.5-8.4c-2.4-1.1-4.8-2.4-7-3.9
		c-0.9-0.6-1.7-1.2-2.5-1.9l-0.4-0.4c-0.1-0.1-0.7-0.7-0.2-0.1c-0.2-0.3-0.4-0.5-0.6-0.8c-0.1-0.1-0.1-0.2-0.2-0.4s0.2,0.6,0.1,0
		c-0.1-0.3,0-0.6,0,0.1c0-0.5,0.1-0.1-0.1,0.1c0.1-0.2,0.1-0.3,0.2-0.5c0.1-0.3-0.3,0.6-0.1,0.2l0.2-0.4c0.8-1.4,1.6-2.8,2.6-4.1
		c1.4-2,2.8-4,4.2-6c2-2.7,3.4-4.6,5.3-7.1c8.9-11.8,18.1-23.3,27.4-34.8c5.8-7.2,11.6-14.3,17.4-21.4l0.3-0.4
		c0.6-0.7,1.1-1.9,0.4-2.7c-3.5-4.4-7.4-8.5-11.7-12.1c-2.3-1.9-5.5-4.3-8.7-3.9c-2.6,0.3-4.8,2.4-6.6,4.2c-2.4,2.5-4.6,5.2-6.7,8
		c-2.3,3-4.5,6-6.6,8.7c-0.9,1.1-1.8,2.3-2.7,3.4c-0.4,0.4-0.7,0.8-1.1,1.2l-0.5,0.5c-0.6,0.6,0.3-0.2-0.1,0.1
		c-0.1,0.1-0.2,0.2-0.4,0.3c-0.1-0.1,0.7-0.3,0.4-0.2s0.7-0.1,0.4-0.1s0.8,0,0.2,0c0.7,0,0.2,0-0.1-0.1l-0.6-0.2l-0.2-0.1
		c-0.4-0.2,0.4,0.2,0,0s-1.1-0.7-1.6-1c-5.7-3.9-10.9-8.3-15.7-13.3c-0.9-0.9-1.7-1.8-2.4-2.7c-0.3-0.4-0.6-0.7-0.8-1.1l-0.3-0.5
		c-0.2-0.3,0.1,0.5,0.1,0.2c0-0.1-0.1-0.1-0.1-0.2c-0.1-0.3,0,0.6,0,0.2c0,0.9-0.1,0.5,0,0.3c0-0.1,0.1-0.2,0.1-0.3
		c0.1-0.6-0.2,0.4,0,0c0.4-0.8,0.8-1.5,1.2-2.3c3.2-5.3,6.8-10.4,10.7-15.2c2.5-3.1,5-6.1,7.7-9c1.4-1.5,2.8-2.9,4.2-4.3
		c0.7-0.7,1.3-1.3,2-1.9l1-0.9l0.5-0.4c0.1-0.1,0.7-0.6,0.4-0.3c1.3-1.1,2.7-2.2,4.2-3.2c0.6-0.4,1.2-0.8,1.8-1.2
		c0.3-0.2,0.6-0.4,1-0.6l0.5-0.3l0.1-0.1c0.6-0.3,1.2-0.6,1.8-0.8l0.9-0.3l0.5-0.2c-0.6,0.2,0,0,0.1,0l0.7-0.1c0.1,0,0.2,0,0.3,0
		c0.4-0.1-0.7,0-0.1,0c1.3,0.1,2.6,0.2,3.9,0.4l1.1,0.2c0.6,0.1-0.1,0,0.2,0l0.8,0.2c0.9,0.2,1.9,0.5,2.8,0.7
		c10.7,3,21.1,7.2,31.4,11.3c13.3,5.4,26.5,11,39.6,16.8c12.3,5.4,24.5,10.8,36.7,16.2c7.5,3.3,15,6.9,22.8,9.6
		c0.9,0.3,1.8,0.6,2.7,0.8c1.9,0.2,3.7-1.1,4.8-2.5c2-2.6,3.6-5.5,4.8-8.5c1.4-3.3,2.8-6.6,4-9.9c0.5-1.4,1-2.9,1.5-4.4l-2.9,2
		c0.8,0.1,1.6,0.2,2.5,0.3s1.8,0.3,2.7,0.4l3,0.6c5.2,1.2,10.7,2.8,15.1,5.7c2.1,1.2,3.8,2.9,5,5c0.2,0.4,0.4,0.8,0.5,1.2
		c0.1,0.4,0.2,0.9,0.3,1.3c0.1,0.5,0-0.3,0,0.3c0,0.2,0,0.4,0,0.7c0,0.5,0,1,0,1.6c-0.2,2.3-0.6,4.6-1.4,6.8c-0.8,2.7-1.9,5.4-3.1,8
		c-2.7,5.9-6.1,11.5-9.9,16.7c-1.7,2.3-3.6,4.5-5.7,6.6c-1.6,1.8-3.5,3.3-5.6,4.6c-0.2,0.1-0.5,0.3-0.7,0.4s0.4-0.2-0.3,0.1
		c-0.5,0.2-0.9,0.4-1.4,0.6l-0.6,0.2c-0.4,0.1,0.1,0,0.1,0l-0.3,0.1c-0.5,0.1-1,0.2-1.5,0.2c-0.1,0-0.8,0-0.3,0h-0.7
		c-0.6,0-1.1,0-1.7-0.1c-1.2-0.1-2.4-0.3-3.6-0.5c-5.8-1.1-11.4-2.7-16.9-4.8c-8.9-3.1-17.4-6.9-26-10.6l-0.4-0.2
		c-1.6-0.7-4.2,1.2-3.5,3c2.8,7.7,5.5,15.5,8.2,23.3c4.2,12.4,8.5,25,11.3,37.8c0.2,1.1,0.5,2.3,0.7,3.4c0.1,0.5,0.1,0.9,0.2,1.4
		c0.1,0.6,0-0.3,0,0.2c0,0.2,0,0.5,0.1,0.7c0,0.7,0,1.4,0,2.1c0,0.6,0.2-0.5,0,0.2c-0.2,0.4,0,0,0.1-0.2c-0.3,0.5,0.1-0.2,0.2-0.2
		s-1.3,0.7,0,0.1c-0.3,0.1-0.5,0.4-0.8,0.5s-0.3,0.1-0.4,0.2c0.2-0.2,0.5-0.2,0,0s-0.8,0.3-1.1,0.5c-0.9,0.4-1.9,0.7-2.8,1l-1.5,0.4
		l-0.6,0.2l-0.2,0.1l-0.5,0.1c-13.7,3.5-28.1,4.8-42.2,5.3c-7.7,0.3-15.5,0.2-23.2-0.5c-6.5-0.6-12.5-1.4-18.5-3.8
		c-0.6-0.2-1.2-0.5-1.8-0.7l-0.7-0.4c-0.1-0.1-1-0.5-0.5-0.3c-1.1-0.6-2.5-0.4-3.4,0.5c-0.7,0.7-1.2,2.4,0,3.1
		c5.5,3.1,11.8,4.4,18,5.3c7.7,1,15.5,1.3,23.3,1.1c15.3,0,30.5-1.6,45.5-4.6c4.4-1,9.3-1.9,13.1-4.3c1.3-0.7,2.3-2,2.7-3.5
		c0.3-1.8,0.2-3.6-0.1-5.4c-0.9-5.4-2.2-10.8-3.8-16.1c-2-6.9-4.1-13.7-6.4-20.4c-3.2-9.6-6.5-19.1-9.9-28.6l-0.2-0.5l-3.5,3
		c7.7,3.6,15.5,6.8,23.5,9.8c6,2.3,12.2,4.2,18.5,5.7c4.6,1,9.8,1.9,14.2-0.1c5.2-2.2,9.4-6.5,12.9-10.8c4.3-5.2,8.1-10.9,11.2-17
		c2.8-5.4,5.3-11.1,6.3-17.1c0.5-2.3,0.6-4.8,0.2-7.1c-0.6-2.5-1.9-4.8-3.7-6.5c-4-4.1-9.9-6.3-15.3-7.8c-4.2-1.2-8.4-2.1-12.7-2.6
		l-0.7-0.1c-1.3-0.1-2.5,0.7-2.9,2c-0.5,1.6-1.1,3.2-1.7,4.8c-1.2,3.2-2.5,6.5-3.8,9.4c-0.7,1.5-1.4,3-2.3,4.4
		c-0.3,0.6-0.7,1.2-1.1,1.8c-0.1,0.1-0.4,0.5,0,0c-0.1,0.1-0.2,0.2-0.3,0.3s-0.4,0.4-0.6,0.6c-0.5,0.5,0.4-0.2-0.1,0.1s0.2-0.1,0,0
		s0.9-0.1,0.7-0.1c-0.1,0-0.2,0-0.3-0.1c-0.2,0,0.7,0.2,0,0c-2.4-0.7-4.8-1.7-7.1-2.7c-4.2-1.7-8.4-3.6-12.6-5.4
		c-11.8-5.2-23.6-10.4-35.4-15.6c-13.3-5.8-26.6-11.6-40-17.1c-11-4.5-22.1-9-33.4-12.5c-3.6-1.2-7.3-2.1-11-2.7
		c-4.3-0.6-8,1-11.6,3.2c-6.4,3.9-11.8,9.5-16.8,15.1c-5,5.6-9.7,11.6-14,17.9c-1.4,2.1-2.8,4.2-4,6.4c-0.8,1.4-1.7,2.9-1.2,4.6
		c0.6,2.2,2.9,4.1,4.4,5.7c2.5,2.6,5.1,5,7.8,7.3c2.5,2.2,5.2,4.3,8,6.2c1.6,1.1,3.8,2.7,5.9,2.3c2.3-0.4,4.1-2.9,5.4-4.6
		c2.2-2.8,4.3-5.7,6.5-8.5c0.9-1.1,2.2-2.9,3.3-4.2s2.2-2.8,3.3-4.1c1-1.1,2-2.2,3.1-3.2c0.1-0.1,0.3-0.3,0.4-0.4
		c-0.5,0.4-0.2,0.2-0.1,0.1s0.4-0.4,0.7-0.5s0.4-0.3,0.6-0.4s0.5-0.1-0.1,0.1c0.1,0,0.2-0.1,0.3-0.2c0.6-0.1-0.6,0,0,0
		s-0.4-0.1,0.2,0l0.5,0.1c-0.1,0-0.4-0.1-0.1,0c0.4,0.1,0.7,0.2,1.1,0.4c1.4,0.7,2.6,1.5,3.8,2.5c2.7,2.3,5.3,4.7,7.6,7.4
		c1.2,1.3,2.4,2.7,3.5,4.1l0.4-2.7c-5,6.1-10,12.3-15,18.5c-9.4,11.6-18.7,23.4-27.8,35.2c-3.8,4.9-7.5,9.9-11.1,15
		c-1.1,1.6-2.2,3.2-3.2,4.9c-0.9,1.2-1.4,2.5-1.6,3.9c0,1.9,1.3,3.3,2.6,4.5c1.8,1.5,3.7,2.7,5.7,3.8c6.1,3.3,12.3,6.2,18.7,8.7
		c10.4,4.2,20.9,8.1,31.6,11.6l0.6,0.2c1.3,0.4,2.6-0.2,3.2-1.3c0.6-0.9,0.4-2-0.4-2.7C237,252.7,236.9,252.7,236.8,252.6z"></path><path class="st2" d="M302.8,232.3c-9.2,0-70.5-8.7-70.5-8.7l34.7-108.7c0,0,19.3,6,21.2,8.3S302.8,232.3,302.8,232.3z"></path><path class="st1" d="M303.5,230.6c-3.5-0.1-7-0.4-10.5-0.9c-2.6-0.3-5-0.6-7.9-0.9c-3-0.4-6.1-0.8-9.1-1.1
		c-11.6-1.5-23.2-3-34.8-4.7l-7.6-1.1l1.1,1.7l3.5-10.9l8.3-25.9l10-31.4l8.7-27.2l2.9-8.9c0.4-1.4,1-2.8,1.4-4.3
		c0-0.1,0-0.1,0.1-0.2l-3.6,1.7c4.4,1.4,8.8,2.8,13.1,4.5c2.4,0.8,4.7,1.8,6.9,3.1l0.2,0.1c-0.6-0.4-0.1,0-0.1,0s0.2,0.2,0.2,0.2
		c-0.4-0.9-0.1-0.3-0.1-0.2s0.1,0.5,0.2,0.7c0.6,2.5,0.9,5,1.3,7.5c0.1,0.4,0,0,0,0.3s0.1,0.5,0.1,0.8c0.1,0.5,0.1,1,0.2,1.5
		l0.5,3.1c0.4,2.4,0.7,4.8,1,7.2c1.6,11.7,3.1,23.5,4.6,35.3c1.4,11.4,2.9,22.8,4.2,34.2c0.7,5.9,1.4,11.7,2.1,17.6
		c0,0.1,0,0.2,0,0.3c0.1,1.2,1.3,1.5,2.3,1.3c0.9-0.1,2.6-1,2.5-2.1c-0.6-4.9-1.2-9.9-1.8-14.8c-1.3-11.2-2.7-22.4-4.1-33.5
		c-1.5-12.1-3-24.1-4.7-36.2c-1-7.7-1.9-15.6-3.5-23.2c-0.1-0.6-0.2-1.2-0.5-1.8c-0.7-1.5-3-2.3-4.5-2.9c-5.5-2.3-11-4.2-16.7-5.9
		l-1.2-0.4c-1.4-0.3-2.9,0.4-3.6,1.7l-3.5,10.8l-8.2,25.9L243,183l-8.7,27.2c-1.4,4.4-2.9,8.7-4.2,13.2l-0.1,0.2
		c-0.2,0.7,0.1,1.4,0.8,1.7c0.1,0,0.2,0.1,0.3,0.1c7.1,1,14.3,2,21.5,3c12.4,1.7,24.7,3.3,37.1,4.7c4.1,0.6,8.3,0.9,12.5,1.1
		c1.3,0.1,2.4-0.6,3-1.7C305.5,231.2,304.5,230.6,303.5,230.6z"></path><path class="st1" d="M297.4,128.1l7.4,11.5c0.6,0.6,0.7,1.6,0.1,2.2c-0.1,0.1-0.2,0.2-0.4,0.3l-6,5.7l6.4,5.4
		c0.6,0.4,1,0.9,1.3,1.5c0.1,0.5,0.2,1,0.1,1.5c-0.4,7.6-7.2,40.1-9.6,47.3"></path><path class="st2" d="M296.6,128.1l6.5,10c0.5,0.8,1.6,1.9,0.9,2.8c-0.6,0.7-1.2,1.3-1.9,1.8l-4.4,4.2c-0.4,0.3,0.4,1.1,0.6,1.2
		l4.1,3.5l1.9,1.6c0.8,0.5,1.2,1.4,1.1,2.4c0,1.1-0.2,2.2-0.4,3.3c-0.5,3.4-1.1,6.9-1.7,10.3c-1.5,8.2-3.3,16.4-5.2,24.6
		c-0.7,3-1.4,6.1-2.4,9.1c-0.2,0.7,1.8,2.2,2,1.3c2.2-6.7,3.5-13.8,5-20.7c1.7-7.8,3.3-15.7,4.4-23.6c0.2-1.4,0.6-3.3,0.2-4.7
		c-0.5-1.6-2.2-2.7-3.4-3.7l-4.9-4.1l0.6,1.3l5-4.7c0.6-0.5,1.5-1.1,1.7-1.9c0.2-0.8,0-1.6-0.5-2.2c-2.4-4-5-7.8-7.5-11.6
		c-0.2-0.4-1-1-1.5-0.9S296.4,127.6,296.6,128.1L296.6,128.1z"></path><path class="st1" d="M260.9,116.4l-10.1,1.6c1.1,4.6,2.3,9.1,3.9,13.6l-8.4,0.4c-0.6,0-1.1,0.1-1.6,0.5c-0.3,0.4-0.4,0.9-0.4,1.4
		c-0.5,12.8-1.5,46.7-2,59.6"></path><path class="st2" d="M260,115.7l-10.1,1.6c-0.1,0-0.3,0.1-0.3,0.3c1.1,4.7,2.4,9.3,3.9,13.8l0.2-0.5l-5.5,0.2c-1,0-2,0.1-3,0.1
		c-0.6,0-1.2,0.2-1.7,0.5c-0.6,0.6-0.5,1.7-0.5,2.6L243,137c-0.2,4.2-0.3,8.5-0.4,12.7c-0.3,10.1-0.7,20.2-1,30.3
		c-0.1,4.3-0.3,8.6-0.5,12.9c0,0.7,2.2,1.7,2.2,0.9c0.7-17.8,1.1-35.6,1.8-53.4c0.1-1.9,0.1-3.8,0.2-5.7c0-0.8,0-1.6,1-1.9
		c0.9-0.2,1.8-0.2,2.7-0.1l6.5-0.3c0.3,0,0.3-0.2,0.2-0.4c-1.5-4.4-2.8-8.9-3.8-13.5l-0.3,0.3l10.1-1.6
		C262.7,117,260.7,115.6,260,115.7L260,115.7z"></path><path class="st1" d="M279.9,145.8c-0.2,0.3-0.3,0.6-0.3,0.9c-0.1,0.3-0.1,0.7,0,1c0.1,0.4,0.2,0.8,0.5,1.1c0.2,0.3,0.6,0.6,0.9,0.7
		c0.2,0.1,0.4,0.1,0.5,0.2c0.2,0,0.4,0.1,0.6,0.1c0.4,0,0.7-0.1,1.1-0.3c0.3-0.2,0.5-0.4,0.6-0.8c0.1-0.3,0.2-0.7,0.1-1
		c0-0.2-0.1-0.3-0.1-0.5c-0.1-0.2-0.2-0.3-0.3-0.4c-0.1-0.1-0.2-0.3-0.4-0.4c-0.2-0.2-0.5-0.3-0.8-0.4c-0.3-0.1-0.6,0-0.9,0.2
		c-0.3,0.2-0.4,0.4-0.5,0.7c0,0.7,0.4,1.2,1.1,1.3h0.1l-0.3-0.1c0,0,0.1,0,0.1,0l-0.3-0.2l0.1,0.1l-0.2-0.2c0,0,0.1,0.1,0.1,0.1
		l-0.2-0.3c0,0.1,0.1,0.1,0.1,0.2l-0.1-0.3c0,0.1,0,0.2,0,0.2v-0.3c0,0.1,0,0.2,0,0.2l0.1-0.3c0,0.1-0.1,0.2-0.1,0.2l0.2-0.2
		c0,0.1-0.1,0.1-0.1,0.1l0.2-0.2l-0.1,0.1l0.3-0.1c-0.1,0-0.1,0.1-0.2,0.1l0.3-0.1c-0.1,0-0.1,0-0.2,0h0.3c-0.1,0-0.2,0-0.2,0
		l0.3,0.1c-0.1,0-0.2-0.1-0.3-0.1l0.3,0.2c-0.1-0.1-0.2-0.1-0.2-0.2l0.2,0.2c-0.1-0.1-0.1-0.1-0.2-0.2l0.2,0.3
		c0-0.1-0.1-0.2-0.1-0.3l0.1,0.3c0-0.1-0.1-0.3-0.1-0.4v0.3c0-0.2,0-0.4,0.1-0.6l-0.1,0.3c0.1-0.2,0.1-0.4,0.2-0.5
		c0.1-0.3,0.1-0.6,0-0.9c-0.3-0.6-1-0.9-1.6-0.7C280.3,145.2,280.1,145.4,279.9,145.8L279.9,145.8z"></path><path class="st1" d="M280.4,170c-0.2,0.3-0.3,0.6-0.4,0.9c-0.1,0.3-0.1,0.6,0,0.9c0.1,0.4,0.2,0.7,0.5,1c0.2,0.3,0.5,0.5,0.9,0.7
		c0.8,0.4,1.7,0.4,2.4,0c0.4-0.3,0.7-0.8,0.6-1.3c0-0.3-0.2-0.6-0.4-0.9c-0.4-0.4-0.9-0.7-1.5-0.7c-0.3,0-0.6,0-0.8,0.2
		c-0.2,0.1-0.3,0.3-0.3,0.6c0.1,0.6,0.8,0.9,1.3,1l0,0l-0.3-0.1h0.1l-0.3-0.1h0.1l-0.3-0.2l0.1,0.1l-0.2-0.2c0,0,0.1,0.1,0.1,0.1
		l-0.1-0.2c0,0.1,0.1,0.1,0.1,0.2l-0.1-0.2c0,0.1,0,0.2,0,0.4v-0.2c0,0.1,0,0.2-0.1,0.3l0.1-0.2c0,0.1-0.1,0.1-0.1,0.2l0.2-0.2
		c-0.1,0-0.1,0.1-0.2,0.1l0.2-0.1c-0.1,0-0.1,0-0.2,0.1l0.3-0.1c-0.1,0-0.1,0-0.2,0h0.3c-0.1,0-0.1,0-0.2,0l0.3,0.1l-0.2-0.1
		l0.3,0.1c-0.1,0-0.1-0.1-0.2-0.1l0.3,0.2c-0.1,0-0.1-0.1-0.2-0.1l0.2,0.2c-0.1-0.1-0.1-0.1-0.2-0.2l0.1,0.2
		c-0.1-0.1-0.1-0.2-0.1-0.3l0.1,0.2c-0.1-0.2-0.1-0.4,0-0.6v0.2c0-0.3,0.1-0.6,0.3-0.9l-0.1,0.2l0,0c0.1-0.1,0.1-0.2,0.1-0.3
		c0-0.1,0-0.2-0.1-0.3c-0.1-0.2-0.4-0.4-0.6-0.6c-0.3-0.2-0.6-0.2-1-0.2l-0.3,0.1C280.6,169.8,280.5,169.8,280.4,170L280.4,170z"></path><path class="st0" d="M270.2,132.4c-10.3,1-20.3-4-25.7-12.9c-9.9-15.3-16.2-38.9-26.9-45.2l-29,0.9c0,0,2.7,22.5,4.5,22.5
		s22.1-5.4,32.9,14.7S254.1,153.1,270.2,132.4z"></path><path class="st2" d="M89.3,203.8c0,0,37.1-51.8,41.5-51.8c4.4,0,68.1,50.1,68.9,53.7s-31.8,49.8-37.9,52.1
		C155.7,260,86.5,208.8,89.3,203.8z"></path><path class="st1" d="M91.4,202.7c5-7,10.1-13.9,15.3-20.8c4.2-5.6,8.4-11.1,12.7-16.5c3.2-4.1,6.6-8.1,10.2-11.9
		c0.1-0.1,0.5-0.5,0.2-0.2l0.4-0.4l0.4-0.3c0.3-0.2,0.4-0.3,0.1-0.1c0.4-0.3,0.1-0.1-0.1,0.1c0.2-0.1,0.4-0.2-0.4,0.2
		c0.3-0.2-0.6,0.3-0.6,0.3s-0.6,0.2-0.8,0.3c0,0-0.2-0.1,0,0c0.7,0.4,1.6,0.6,2.4,1.1c3.7,2.3,7.3,4.7,10.8,7.4
		c11,8,21.8,16.4,32.3,24.9c4.8,3.9,9.6,7.8,14.3,11.8c2.9,2.3,5.6,4.8,8.2,7.5c0.5,0.6,0.8,1,0.6,1.6c-0.5,1.5-1.2,2.9-2,4.2
		c-2.9,5.2-6.3,10.2-9.7,15.2c-4.1,6-8.4,11.8-12.8,17.6c-1.9,2.4-3.9,4.9-5.9,7.2c-0.8,1-1.7,2-2.6,2.9c-0.4,0.4-0.7,0.8-1.1,1.2
		l-0.5,0.5c-0.3,0.3,0,0-0.4,0.4s-0.6,0.5-0.9,0.8c0.5-0.4,0.1,0-0.1,0l0.3-0.2c-0.3,0.2,0.7-0.4,0.2-0.1c0.3-0.2,0.6-0.3,0.9-0.5
		c-0.3,0.1,0.5-0.2,0.2-0.1c0.2-0.1,0.3-0.1,0.4-0.1c-0.2,0-0.4,0-0.6,0c-1.2-0.2-2.4-0.6-3.5-1.2c-4.2-2.1-8.3-4.4-12.2-7.1
		c-11.4-7.3-22.4-15.4-33-23.7c-4.8-3.8-9.6-7.6-14.2-11.7c-2.8-2.5-5.9-5.1-8-8.2C91.8,204,91.3,203.1,91.4,202.7
		c0.3-0.5-1.6,0.3-1.7,0.4c-1,0.4-1.9,1.1-2.5,1.9c-0.4,0.7,0.3,1.6,0.7,2.2c1,1.3,2,2.6,3.2,3.7c3.8,3.7,7.8,7.3,12,10.6
		c10.9,8.9,22.2,17.4,33.9,25.2c4.8,3.2,9.6,6.4,14.6,9.2c1.6,0.9,3.3,1.8,5,2.5c1,0.5,2,0.8,3.1,0.8c2.2-0.2,4.5-2.1,6-3.5
		c1.7-1.6,3.4-3.3,4.9-5.1c4.5-5.2,8.6-10.7,12.7-16.2c4.3-5.8,8.4-11.8,12.4-17.8c1.5-2.3,2.9-4.6,4.2-6.9c0.9-1.3,1.6-2.8,2.1-4.3
		c0.2-0.9-0.1-1.2-0.7-1.9c-1-1.1-2-2.1-3.1-3.1c-3.9-3.6-8.1-7.1-12.2-10.4c-11-9-22.2-17.8-33.6-26.3c-4.4-3.3-8.8-6.6-13.4-9.6
		c-1.4-0.9-2.8-1.8-4.2-2.6c-0.8-0.6-1.8-0.7-2.7-0.4c-4.2,1.6-7.3,5.4-10.1,8.7c-4.2,4.9-8.2,10-12.2,15.2
		c-7.2,9.4-14.2,18.9-21.1,28.5l-1.2,1.7c-0.3,0.4,1.7-0.4,1.8-0.4C89.9,204.1,90.7,203.5,91.4,202.7z"></path><path class="st1" d="M149.8,251.2c0.6-0.6,1.1-1.2,1.6-1.9c1-1.3,1.9-2.5,2.9-3.8c3.1-4.2,6.2-8.3,9.4-12.5
		c7.1-9.5,14.2-19,21.7-28.2c0.7-0.9,1.5-1.8,2.3-2.7c0.4-0.4,0.7-0.8,1.1-1.2c0.1-0.2,0.3-0.3,0.4-0.5s0.1-0.1,0.2-0.2
		c0.3-0.3-0.4,0.4-0.1,0.1c0.5-0.5,0.9-1,1.4-1.5c0.2-0.1,0.3-0.3,0.5-0.4c0.5-0.4-0.4,0.2-0.1,0c2.7-1,0.4-5.4-2.2-4.4
		c-0.9,0.4-1.7,1.1-2.3,1.9c-1.3,1.4-2.5,2.8-3.7,4.3c-3.4,4.1-6.6,8.2-9.9,12.4c-7.2,9.4-14.3,18.9-21.4,28.3
		c-1.2,1.6-2.5,3.3-3.7,4.9c-0.4,0.5-0.7,1-1.1,1.4c-0.1,0.1-0.2,0.3-0.3,0.4c-0.2,0.3,0.5-0.5,0.2-0.2
		C144.5,249,147.7,252.9,149.8,251.2L149.8,251.2z"></path><path class="st1" d="M158.7,253.2c4.1-5.3,8.3-10.6,12.4-15.9c6.8-8.7,13.5-17.4,20.2-26.1c1.9-2.3,3.7-4.7,5.3-7.3
		c0.7-1.3-4.1-2.1-4.8-0.8c-1.3,2.1-2.8,4.2-4.4,6.1c-3,4-6.1,8-9.2,12c-6.6,8.5-13.2,17-19.9,25.5l-4.5,5.7
		C153.1,253.5,157.7,254.4,158.7,253.2L158.7,253.2z"></path><path class="st2" d="M235.9,215c0,0-22.7,17.9-19,33.5c6.5,27.6,98.6,24.5,98.6,24.5l-35.2,58.5l46,5.4
		c11.9-4.9,57.4-95.8,46-103.9S235.9,215,235.9,215z"></path><path class="st1" d="M233.7,214.8c-3.1,2.5-5.9,5.2-8.6,8.1c-4.7,5.2-9.2,11.3-10.7,18.3c-1.2,4.9,0,10,3.1,13.9
		c2.9,3.3,6.5,5.9,10.5,7.6c10.4,5,22.1,7.1,33.4,8.7c11.5,1.5,23,2.4,34.6,2.6c4.2,0.1,8.5,0.2,12.7,0.1c2,0,4,0.1,6-0.1h0.3
		l-1.9-1l-11.9,19.8l-19,31.5l-4.3,7.2c-0.4,0.7,1,1,1.3,1l28.5,3.4l15.4,1.8c1.6,0.2,3,0.5,4.6-0.1c1.3-0.6,2.4-1.4,3.4-2.4
		c2.9-2.9,5.4-6.2,7.6-9.7c3.3-4.9,6.3-10,9.2-15.1c6.8-12.1,13-24.7,18.4-37.5c2.5-5.8,4.8-11.7,6.7-17.7c1.6-4.6,2.7-9.4,3.4-14.3
		c0.3-2.6,0.6-6.1-1.2-8.2c-1.6-1.8-4.8-2.5-7-3.1c-9.8-2.7-20-4-30-5.4c-13.6-1.9-27.4-3.4-41.1-4.9c-12.7-1.3-25.3-2.6-38-3.7
		c-7.1-0.6-14.1-1.2-21.2-1.8l-1-0.1C235.9,213.8,234.3,213.9,233.7,214.8c-0.8,0.9,0.3,1.2,1,1.3c3.4,0.3,6.9,0.6,10.3,0.9
		c8.6,0.7,17.2,1.5,25.8,2.3c11.1,1,22.2,2.2,33.2,3.4c11.1,1.2,22.2,2.5,33.2,4.1c8.5,1.2,16.4,2.3,24.9,4.3
		c1.4,0.3,2.8,0.7,4.1,1.1l0.8,0.3l0.4,0.1l0.3,0.1l0.5,0.2l0.6,0.3c0.4,0.2,0.7,0.4,1.1,0.6c0.2,0.1,0.4,0.3,0.1,0.1
		c0.2,0.1,0.3,0.3,0.4,0.4c0.2,0.3,0.4,0.6,0.5,0.9c0.2,0.4,0.3,0.9,0.4,1.4c0.3,2.8,0.2,5.7-0.5,8.5c-0.9,4.2-2,8.3-3.4,12.3
		c-3.6,10.4-7.7,20.5-12.5,30.4c-4.8,10-9.9,20-15.6,29.5c-2.3,3.8-4.6,7.5-7.2,11.1c-1.7,2.5-3.6,4.8-5.8,6.9
		c-0.2,0.2-0.4,0.3-0.6,0.5s0.1,0,0,0l-0.3,0.2l-0.5,0.3c-0.5,0.3,0.4-0.2-0.1,0l2.5-0.4l-15.5-1.8l-24.7-2.9l-5.7-0.7l1.3,1
		l11.9-19.8l19-31.5l4.3-7.2c0.5-0.9-1.6-1-1.9-1c-4.9,0.2-9.8,0.1-14.7,0c-2.4,0-4.1-0.1-6.8-0.2s-5.3-0.2-8-0.4
		c-5.9-0.3-11.8-0.8-17.6-1.5c-11.1-1.3-22.6-3.1-33-7.2c-7.6-3-16.4-8-17-17c-0.5-6.9,3.5-13.6,7.6-18.8c3.2-4.1,6.9-7.8,10.9-11.1
		l0.7-0.6c0.9-0.7-0.6-1.2-1.1-1.3C235.8,213.8,234.7,214.1,233.7,214.8z"></path><path class="st2" d="M298.4,52.7c0,0,8.2,10.3,17.5,10.4s27.5-2.4,29.2,6.9s-11,12.1-18.9,10.2c0,0,1,24.6-13.6,30.6
		s-21.3,1.7-22.7,11.7c0,0-18.6,16.4-19.7-2.5c-0.2-2.9-5.7-39.5,17-50.1C287.2,69.9,300,64.7,298.4,52.7z"></path><path class="st1" d="M296.3,54.1c2.5,3.1,5.6,5.7,9,7.8c2.6,1.6,5.6,2.6,8.7,2.8c2.5,0.1,5.1-0.1,7.6-0.2c5.2-0.1,11-0.5,16,1.3
		c2,0.6,3.7,1.9,4.7,3.7c1,2.1,0.9,4.5-0.3,6.4c-0.2,0.4-0.5,0.7-0.8,1c0,0-0.3,0.3-0.1,0.1s-0.3,0.2-0.4,0.2
		c0.3-0.2-0.4,0.2-0.5,0.3c-1.2,0.5-2.4,0.9-3.6,1.2c-2.9,0.5-5.8,0.5-8.6-0.1c-1.2-0.3-4,1.3-4,2.7c0.3,6.3-0.7,12.6-3,18.5
		c-0.8,2.1-1.9,4.1-3.3,5.9c-0.6,0.8-1.3,1.4-2,2.1c-0.6,0.5-1.3,1-2.1,1.3c-5.2,2.4-10.8,3-16.3,4.4c-2.5,0.5-4.9,1.8-6.7,3.6
		c-1.6,1.8-2.6,4-2.9,6.4l1.1-1.6c-0.4,0.3-0.8,0.7-1.2,1l-0.3,0.2c-0.3,0.2,0.5-0.4,0,0l-0.8,0.6c-0.6,0.4-1.2,0.8-1.8,1.2
		c-0.1,0-0.6,0.3-0.3,0.2s-0.2,0.1-0.3,0.2c-0.4,0.2-0.7,0.4-1.1,0.6c-0.2,0.1-1.1,0.5-0.7,0.3c-0.4,0.2-0.8,0.3-1.2,0.5
		c-0.6,0.3-1.3,0.5-2,0.6c-0.6,0.1-1.3,0.1-1.9,0c-3.9-0.5-4.8-5.2-5-8.4c-0.1-1.7-0.3-3.5-0.5-5.2c-0.7-7.5-0.2-15.1,1.3-22.4
		c0.9-4.2,2.5-8.3,4.7-12c1.1-1.7,2.4-3.3,3.8-4.7c0.7-0.7,1.5-1.3,2.3-1.9c0.9-0.6,1.8-1.1,2.7-1.6c0.4-0.2-0.4,0.2,0,0l0.8-0.4
		c0.4-0.2,0.8-0.4,1.2-0.6c1.7-0.9,3.2-2,4.7-3.2c3.6-2.9,6.5-6.9,7.1-11.6c0.2-1.3,0.2-2.7,0-4c-0.2-1.4-4.5,0.9-4.3,2.3
		c0.5,3.6-0.5,7.3-2.7,10.2c-0.3,0.3-0.5,0.6-0.8,0.9s-0.4,0.4-0.6,0.6s-0.5,0.4-0.8,0.7l-0.4,0.3c-0.6,0.4,0.4-0.3-0.1,0.1
		s-1,0.7-1.5,1c-0.3,0.2,0.5-0.3,0.1,0l-0.3,0.2l-0.7,0.4c-0.3,0.2-1.2,0.5-0.4,0.2c-0.3,0.1-0.6,0.2-0.9,0.4
		c-1.8,0.9-3.5,1.9-5.1,3.1c-3.1,2.3-5.7,5.1-7.8,8.3c-6.8,10.7-7.6,24.3-6.7,36.6c0.1,1.4,0.3,2.7,0.4,4.1c0.2,2.7,0.5,6,2.5,8.1
		c4,4.1,11,0.4,14.9-2c1.7-1.1,3.4-2.3,5-3.6c0.8-0.5,1.3-1.3,1.6-2.2c0.2-1.3,0.6-2.5,1.3-3.6c0.2-0.3-0.3,0.4,0-0.1
		s-0.1,0-0.1,0.1c0.3-0.6,0,0.2,0,0c0,0,0.3-0.1,0.3-0.2c-0.1-0.2-0.4,0.4,0,0c0.1-0.1,0.5-0.2,0,0c0.2-0.1,0.8-0.3,0.8-0.3
		c1.1-0.3,2.8-0.7,4.2-0.9c4.6-0.8,9.2-2.1,13.6-3.8c12.5-5.2,16.4-19.8,16.4-32.2c0-0.3,0-0.6,0-0.9l-4,2.7
		c5.9,1.4,12.2,0.4,17.4-2.7c2.4-1.5,4.6-3.8,5.4-6.6c0.7-2.4,0.2-5-1.4-7c-3.4-4-10-4.2-14.8-4.3c-3-0.1-6,0-9,0.1
		s-5.8,0.2-8.7-0.7c-5-1.9-9.5-5.1-12.8-9.4C299.6,50.2,295.5,53.1,296.3,54.1z"></path><path class="st1" d="M262.5,100.1c0,0-12,5.6-15.3-0.9s5.1-6.3,5.1-6.3s-11.8-12.3,0.6-17.1c0,0-12.6-8.6-5.9-20s24.5-8,24.5-8
		s-3.1-15.1,10.3-15.5s11.9,9.3,11.9,9.3s8.6-0.4,9.7,4.8s-4.8,8.4-4.8,8.4S299,70.1,287.2,70l-7.7,20.7c0,0,5.1,6.1,2.1,13.9
		S263.6,109.9,262.5,100.1z"></path><path class="st1" d="M262,99.1l-0.8,0.3c0.7-0.3-0.1,0-0.4,0.1s-0.8,0.3-1.2,0.4c-1.8,0.6-3.6,0.9-5.5,0.9c-2,0-3.7-1.1-4.6-2.8
		c-0.5-0.9-0.7-1.9-0.6-2.9c0.1-0.2,0.2-0.4,0.3-0.6c0,0,0,0,0,0.1s-0.3,0.2-0.1,0.1s-0.4,0.2,0.1,0s-0.2,0,0.1,0s0.7-0.1,1.1-0.2
		c-0.6,0.1,0.2,0,0.4,0h0.3c0.9,0,4.6-1.4,3.3-2.8c-0.1-0.1-0.2-0.2-0.3-0.3c-0.4-0.4-0.7-0.9-1.1-1.3c-1-1.3-1.9-2.8-2.6-4.3
		c-0.8-1.6-1-3.3-0.8-5.1c0.4-2,1.9-3,3.7-3.7c0.5-0.2,2.6-1.6,1.6-2.3c-4.6-3.2-8.4-9-7.4-14.8c0.4-2.3,1.4-4.4,2.9-6.2
		c1.1-1.3,2.4-2.3,3.9-3c1.5-0.7,3.1-1.2,4.8-1.4c1.6-0.3,3.3-0.4,4.9-0.4c1.9-0.1,3.9,0.1,5.8,0.4c1.2,0.2,4.3-0.9,4-2.5
		c0-0.1,0-0.2,0-0.3s-0.1-0.5,0-0.1c0-0.2,0-0.4-0.1-0.6c-0.1-0.9-0.1-1.9-0.1-2.9c-0.1-2.5,0.6-5,2-7.1c0.3-0.4,0.7-0.8,1.1-1.1
		c-0.4,0.3,0.8-0.5,0.3-0.2c0.2-0.1,0.4-0.2,0.7-0.3c-0.4,0.2,0.2-0.1,0.3-0.1c1.9-0.5,3.8-0.6,5.8-0.3c2.9,0.4,5.8,1.6,7,4.4
		c0.6,1.3,0.9,2.7,0.6,4.1c-0.1,0.6,0.6,0.7,1,0.7c2.5-0.1,6.3,0.3,8,2.7c1.2,1.9,1.1,4.4-0.3,6.1c-0.5,0.7-1.1,1.3-1.8,1.8
		c0.5-0.4-0.2,0.1-0.4,0.2c-0.1,0.1-0.2,0.1-0.3,0.2c-0.4,0.2-1.3,0.9-1.2,1.5c0,2.3-0.3,4.7-1.1,6.9c-0.5,1.7-1.4,3.3-2.6,4.6
		c-0.1,0.1-0.2,0.2-0.3,0.3c-0.2,0.1-0.3,0.3-0.5,0.4c0.4-0.2-0.4,0.2-0.5,0.3c0.4-0.2-0.1,0.1-0.3,0.1c0.5-0.2-0.2,0.1-0.3,0.1
		c-0.2,0.1-0.4,0.1-0.7,0.2c-0.6,0.1-1.2,0.1-1.7,0.1c-1,0-3,0.8-3.5,1.9l-7.1,19.3c-0.2,0.6-0.8,1.6-0.5,2.2s0.8,1.2,1.1,1.7
		c0.6,1.1,1.1,2.2,1.4,3.4c0.8,2.8,0.7,6.7-1,9.2c-0.1,0.1-0.2,0.3-0.3,0.4c-0.1,0.1-0.2,0.2-0.3,0.3c-0.1,0.1-0.5,0.4-0.2,0.2
		l-0.4,0.2c0.2-0.1,0.2-0.1,0,0l-0.4,0.2c0,0,0.4-0.1,0.1-0.1c-0.1,0-0.8,0.2-0.4,0.1c-0.4,0.1-0.8,0.2-1.3,0.2
		c-5,0.2-10.2-3.2-10.9-8.4c-0.2-1.8-4.8,0.1-4.6,1.5c0.8,6.2,6.6,9.9,12.5,9.8c3.2,0,6.4-1.1,8.8-3.3c2.8-2.6,3.7-6.7,3.2-10.4
		c-0.3-2.7-1.3-5.2-3-7.4l-0.1,0.7l6.7-18.1l1-2.6l-3.5,1.9c5.9,0.1,11.2-3.4,13.4-8.8c1.1-2.7,1.7-5.6,1.7-8.6l-1.3,1.5
		c3.7-2,8-7,5.5-11.4c-1.9-3.3-6.8-4.1-10.2-3.9l1,0.7c0.2-1.5,0-3-0.6-4.4c-1.3-3.2-4.6-4.9-8-5.4c-4.9-0.8-10.3,0-14.2,3.3
		c-2.4,2.2-3.9,5.2-4.2,8.5c-0.2,2-0.1,4,0.2,6l4-2.5c-6.2-1.1-12.6-0.5-18.5,1.7c-4.7,1.8-8.5,5.3-10.7,9.8
		c-1.9,4.3-1.4,9.2,1.1,13.1c1.5,2.4,3.5,4.5,5.8,6.2l1.6-2.3c-2.7,1.1-5.6,2.9-6.9,5.7c-0.8,2-0.8,4.2-0.1,6.2
		c1,2.8,2.7,5.4,4.8,7.5l3.3-2.7c-3.5-0.1-9.8,1.8-9.4,6.1c0.4,6.7,8.1,6.7,13,5.5c2-0.5,3.9-1.2,5.8-2c0.6-0.3,2.2-1.2,1.8-2.1
		S262.6,98.8,262,99.1z"></path><path class="st1" d="M311.1,66.9c1.1,0.2,1.8,1.2,1.6,2.2c0,0.1,0,0.2-0.1,0.3c-0.7,2-3.2,1.2-3.2-0.7c-0.1-0.9,0.5-1.7,1.4-1.8
		C310.9,66.9,311,66.9,311.1,66.9z"></path><path class="st1" d="M310.5,86.2c1.1,3.5,4,6.9,7.6,7.8c2.4,0.5,4.8,0.5,7.2,0c0.2,0,1.4-0.3,0.6-0.5c-0.9-0.1-1.7-0.1-2.6,0.2
		c0.4-0.1-0.6,0.1,0,0c0,0-0.3,0-0.1,0s-0.2,0,0,0s-0.4,0-0.1,0h-0.4c-0.6-0.1-1.3-0.2-1.9-0.4c-1.1-0.4-2.1-1.1-3-1.9
		c-1.4-1.3-2.5-2.8-3.2-4.5c-0.2-0.3-0.3-0.7-0.4-1.1c-0.1-0.4-1.6-0.1-1.9-0.1S310.4,85.9,310.5,86.2L310.5,86.2z"></path><path class="st0" d="M285.7,126.4c0,0-10.3,16.9-20.1,9.7c0,0,3.4-11.5,5.8-11.5S285.7,126.4,285.7,126.4z"></path><path class="st1" d="M282.5,195.2c-0.2,0.3-0.3,0.6-0.4,0.9c-0.1,0.4-0.1,0.8-0.1,1.2c0,0.3,0.2,0.6,0.4,0.9
		c0.2,0.3,0.5,0.5,0.8,0.7c0.7,0.3,1.5,0.3,2.2-0.1c0.4-0.2,0.7-0.6,0.9-1c0.1-0.3,0.2-0.7,0.1-1c0-0.1,0-0.2,0-0.2
		c0-0.2-0.1-0.3-0.2-0.4c-0.2-0.4-0.6-0.6-1.1-0.6c-0.3,0-0.6,0-0.9,0.2c-0.3,0.2-0.5,0.4-0.6,0.7c-0.1,0.3-0.1,0.6,0.1,0.8
		c0.2,0.2,0.4,0.4,0.7,0.4h0.1l-0.3-0.1c0,0,0.1,0,0.1,0.1l-0.2-0.1c0,0,0.1,0.1,0.1,0.1l-0.2-0.2c0.1,0.1,0.1,0.1,0.1,0.2l-0.1-0.3
		c0,0.1,0.1,0.2,0.1,0.3v-0.3c0,0.1,0,0.2,0,0.3l0.1-0.3c0,0.1,0,0.1-0.1,0.2l0.1-0.3c0,0.1-0.1,0.1-0.1,0.1l0.2-0.2l-0.1,0.1
		l0.3-0.2l-0.1,0.1l0.3-0.1c-0.1,0-0.1,0-0.2,0.1l0.3-0.1h-0.2h0.3c-0.1,0-0.2,0-0.2,0l0.3,0.1c-0.1,0-0.2-0.1-0.3-0.1l0.2,0.1
		c-0.1-0.1-0.2-0.2-0.3-0.3l0.2,0.2c-0.1-0.1-0.1-0.2-0.2-0.3l0.1,0.2c-0.1-0.1-0.1-0.3-0.1-0.5v0.3c0-0.2,0-0.3,0-0.5l-0.1,0.3
		c0-0.2,0.1-0.4,0.2-0.6l-0.1,0.3c0,0,0,0,0-0.1c0.2-0.2,0.2-0.5,0.2-0.8c-0.1-0.3-0.3-0.5-0.5-0.6c-0.3-0.1-0.6-0.1-0.9,0
		C282.9,194.7,282.6,194.9,282.5,195.2L282.5,195.2z"></path><path class="st1" d="M274.3,137.6l-1.7,24.4l-2.7,38.5l-0.6,8.9c0,0.4,2.3,0.9,2.3,1l1.7-24.4l2.7-38.5l0.6-8.9
		C276.6,138.2,274.3,137.7,274.3,137.6L274.3,137.6z"></path><path class="st0" d="M258.5,101.9c0,0,22.5-50.6,46.2-51.4c0,0,4.6,4.1,2.7,7.7s-42.1,48.1-45.4,47.3
		C260.3,105.1,258.9,103.7,258.5,101.9z"></path><path class="st2" d="M292,77.8c0,0-4.8-11.5-12.1-8.4s-6.6,23.3,6.9,20.3"></path><path class="st1" d="M294.2,76.7c-1-2.4-2.5-4.6-4.3-6.4c-1.3-1.4-3.1-2.4-5-2.7c-2.5-0.2-4.9,0.4-6.9,1.8
		c-5.6,3.6-6.5,12.6-3,17.9c2.5,3.8,6.8,4.5,11,3.6c1.2-0.2,2.2-0.8,2.9-1.8c0.5-1-0.8-0.9-1.4-0.8c-1.4,0.3-2.9,0.3-4.3-0.2
		c-1.3-0.4-2.4-1.2-3.3-2.2c-1.7-2.3-2.6-5.2-2.5-8.1c0-1.4,0.2-2.8,0.7-4.2c0.2-0.6,0.4-1.2,0.7-1.7c0.2-0.3,0.3-0.5,0.5-0.8
		c0-0.1,0.3-0.4,0.2-0.2s0.2-0.2,0.2-0.3s0.2-0.2,0.3-0.3c0.3-0.3-0.3,0.2,0,0s-0.1,0,0,0c0.5-0.3-0.4,0.2-0.1,0s-0.4,0,0.1,0
		c-0.4,0,0.1,0,0.3-0.1c-0.3,0,0.2,0,0.3,0c0.2,0,0.4,0,0.6,0c1.6,0.3,3.1,1,4.2,2.2c1.9,1.8,3.4,4,4.4,6.5
		C290.2,80.1,294.7,78.1,294.2,76.7L294.2,76.7z"></path><polygon class="st1" points="240.4,198.4 231.9,259 182.7,234.6 	"></polygon><path class="st1" d="M238.1,199.2l-2.9,20.6l-4.6,32.5l-1.1,7.5l4.4-1.9l-16.7-8.3l-26.4-13.1l-6.1-3l-0.7,1.3l19.6-12.3l31-19.4
		l7.2-4.5c0.5-0.3,1.4-1.1,0.4-1.4s-2.5,0.6-3.2,1.1l-19.6,12.3l-31,19.4l-7.2,4.5c-0.2,0.2-1.3,1-0.7,1.3l16.7,8.3l26.4,13.1l6.1,3
		c1,0.5,4.3-0.8,4.4-1.9l2.9-20.6l4.6-32.5l1.1-7.5C242.8,196.6,238.3,197.9,238.1,199.2z"></path><path class="st0" d="M135.6,288.3l48.1-13.4c1-0.3-0.4-0.9-0.7-1c-1.1-0.4-2.3-0.6-3.4-0.4l-48.1,13.4c-1,0.3,0.4,0.9,0.7,1
		C133.3,288.4,134.5,288.5,135.6,288.3z"></path><path class="st0" d="M86.4,301.3l17.4-4c0.8-0.2,2.4-0.8,2.2-1.9s-2-1.1-2.7-0.9l-17.4,4c-0.8,0.2-2.4,0.8-2.2,1.9
		S85.6,301.5,86.4,301.3z"></path><path class="st0" d="M109,317.4c14.4-3,28.5-7.2,42.2-12.6c0.8-0.3,1.6-1,0.8-1.8s-2.5-0.7-3.4-0.3c-13.3,5.3-27,9.4-41,12.4
		c-0.7,0.1-2.1,0.6-1.7,1.6S108.3,317.6,109,317.4L109,317.4z"></path><path class="st0" d="M90.5,364.6c5.2-0.2,10.2-1.8,14.6-4.6c0.8-0.5,1.3-1.9,0.4-2.5c-1.1-0.7-2.4-0.6-3.5,0.1l-0.8,0.5l-0.4,0.2
		c0.2-0.1,0.2-0.1,0.1,0c-0.5,0.3-1,0.5-1.5,0.7s-1,0.4-1.4,0.6l-0.6,0.2c-0.1,0-1,0.3-0.4,0.1c-1,0.3-2,0.5-3,0.7l-0.9,0.1
		c-0.2,0-0.7,0.1-0.2,0c-0.6,0.1-1.2,0.1-1.8,0.1c-1.1,0-2.6,0.6-2.8,1.9S89.5,364.6,90.5,364.6L90.5,364.6z"></path></g></svg>